999
DXF created by Inkscape
  0
SECTION
  2
HEADER
  9
$ACADVER
  1
AC1014
  9
$HANDSEED
  5
FFFF
  9
$MEASUREMENT
 70
     1
  0
ENDSEC
  0
SECTION
  2
TABLES
  0
TABLE
  2
VPORT
  5
8
330
0
100
AcDbSymbolTable
 70
     4
  0
VPORT
  5
2E
330
8
100
AcDbSymbolTableRecord
100
AcDbViewportTableRecord
  2
*ACTIVE
 70
     0
 10
0.0
 20
0.0
 11
1.0
 21
1.0
 12
210.0
 22
148.5
 13
0.0
 23
0.0
 14
10.0
 24
10.0
 15
10.0
 25
10.0
 16
0.0
 26
0.0
 36
1.0
 17
0.0
 27
0.0
 37
0.0
 40
341.0
 41
1.24
 42
50.0
 43
0.0
 44
0.0
 50
0.0
 51
0.0
 71
     0
 72
   100
 73
     1
 74
     3
 75
     0
 76
     0
 77
     0
 78
     0
  0
ENDTAB
  0
TABLE
  2
LTYPE
  5
5
330
0
100
AcDbSymbolTable
 70
     1
  0
LTYPE
  5
14
330
5
100
AcDbSymbolTableRecord
100
AcDbLinetypeTableRecord
  2
BYBLOCK
 70
     0
  3

 72
    65
 73
     0
 40
0.0
  0
LTYPE
  5
15
330
5
100
AcDbSymbolTableRecord
100
AcDbLinetypeTableRecord
  2
BYLAYER
 70
     0
  3

 72
    65
 73
     0
 40
0.0
  0
LTYPE
  5
16
330
5
100
AcDbSymbolTableRecord
100
AcDbLinetypeTableRecord
  2
CONTINUOUS
 70
     0
  3
Solid line
 72
    65
 73
     0
 40
0.0
  0
ENDTAB
  0
TABLE
  2
LAYER
  5
2
100
AcDbSymbolTable
 70
2
  0
LAYER
  5
50
100
AcDbSymbolTableRecord
100
AcDbLayerTableRecord
  2
0
 70
0
  6
CONTINUOUS
  0
LAYER
  5
51
100
AcDbSymbolTableRecord
100
AcDbLayerTableRecord
  2
Layer_1
 70
0
  6
CONTINUOUS
  0
ENDTAB
  0
TABLE
  2
STYLE
  5
3
330
0
100
AcDbSymbolTable
 70
     1
  0
STYLE
  5
11
330
3
100
AcDbSymbolTableRecord
100
AcDbTextStyleTableRecord
  2
STANDARD
 70
     0
 40
0.0
 41
1.0
 50
0.0
 71
     0
 42
2.5
  3
txt
  4

  0
ENDTAB
  0
TABLE
  2
VIEW
  5
6
330
0
100
AcDbSymbolTable
 70
     0
  0
ENDTAB
  0
TABLE
  2
UCS
  5
7
330
0
100
AcDbSymbolTable
 70
     0
  0
ENDTAB
  0
TABLE
  2
APPID
  5
9
330
0
100
AcDbSymbolTable
 70
     2
  0
APPID
  5
12
330
9
100
AcDbSymbolTableRecord
100
AcDbRegAppTableRecord
  2
ACAD
 70
     0
  0
ENDTAB
  0
TABLE
  2
DIMSTYLE
  5
A
330
0
100
AcDbSymbolTable
 70
     1
  0
DIMSTYLE
105
27
330
A
100
AcDbSymbolTableRecord
100
AcDbDimStyleTableRecord
  2
ISO-25
 70
     0
  3

  4

  5

  6

  7

 40
1.0
 41
2.5
 42
0.625
 43
3.75
 44
1.25
 45
0.0
 46
0.0
 47
0.0
 48
0.0
140
2.5
141
2.5
142
0.0
143
0.03937007874016
144
1.0
145
0.0
146
1.0
147
0.625
 71
     0
 72
     0
 73
     0
 74
     0
 75
     0
 76
     0
 77
     1
 78
     8
170
     0
171
     3
172
     1
173
     0
174
     0
175
     0
176
     0
177
     0
178
     0
270
     2
271
     2
272
     2
273
     2
274
     3
340
11
275
     0
280
     0
281
     0
282
     0
283
     0
284
     8
285
     0
286
     0
287
     3
288
     0
  0
ENDTAB
  0
TABLE
  2
BLOCK_RECORD
  5
1
330
0
100
AcDbSymbolTable
 70
     1
  0
BLOCK_RECORD
  5
1F
330
1
100
AcDbSymbolTableRecord
100
AcDbBlockTableRecord
  2
*MODEL_SPACE
  0
BLOCK_RECORD
  5
1B
330
1
100
AcDbSymbolTableRecord
100
AcDbBlockTableRecord
  2
*PAPER_SPACE
  0
ENDTAB
  0
ENDSEC
  0
SECTION
  2
BLOCKS
  0
BLOCK
  5
20
330
1F
100
AcDbEntity
  8
0
100
AcDbBlockBegin
  2
*MODEL_SPACE
 70
     0
 10
0.0
 20
0.0
 30
0.0
  3
*MODEL_SPACE
  1

  0
ENDBLK
  5
21
330
1F
100
AcDbEntity
  8
0
100
AcDbBlockEnd
  0
BLOCK
  5
1C
330
1B
100
AcDbEntity
 67
     1
  8
0
100
AcDbBlockBegin
  2
*PAPER_SPACE
  1

  0
ENDBLK
  5
1D
330
1B
100
AcDbEntity
 67
     1
  8
0
100
AcDbBlockEnd
  0
ENDSEC
  0
SECTION
  2
ENTITIES
  0
LWPOLYLINE
  5
100
100
AcDbEntity
  8
Layer_1
 62
7
100
AcDbPolyline
 90
105
 70
0
 10
12.072428
 20
4.472023
 30
0.0
 10
12.237384
 20
4.472023
 30
0.0
 10
12.402341
 20
4.472023
 30
0.0
 10
12.567298
 20
4.472023
 30
0.0
 10
12.732255
 20
4.472023
 30
0.0
 10
12.669283
 20
4.283470
 30
0.0
 10
12.591496
 20
4.132792
 30
0.0
 10
12.498894
 20
4.019987
 30
0.0
 10
12.391476
 20
3.945057
 30
0.0
 10
12.283685
 20
3.896995
 30
0.0
 10
12.189971
 20
3.864737
 30
0.0
 10
12.110332
 20
3.848368
 30
0.0
 10
12.044770
 20
3.848368
 30
0.0
 10
11.890987
 20
3.856270
 30
0.0
 10
11.745723
 20
3.891859
 30
0.0
 10
11.608980
 20
3.955076
 30
0.0
 10
11.480756
 20
4.045895
 30
0.0
 10
11.371423
 20
4.172980
 30
0.0
 10
11.291352
 20
4.345051
 30
0.0
 10
11.240544
 20
4.562136
 30
0.0
 10
11.218999
 20
4.824236
 30
0.0
 10
11.238737
 20
5.075922
 30
0.0
 10
11.286721
 20
5.290213
 30
0.0
 10
11.362949
 20
5.467082
 30
0.0
 10
11.467421
 20
5.606556
 30
0.0
 10
11.591709
 20
5.711938
 30
0.0
 10
11.727388
 20
5.786586
 30
0.0
 10
11.874457
 20
5.830471
 30
0.0
 10
12.032916
 20
5.843736
 30
0.0
 10
12.179722
 20
5.824827
 30
0.0
 10
12.306526
 20
5.786529
 30
0.0
 10
12.413328
 20
5.728984
 30
0.0
 10
12.500129
 20
5.652163
 30
0.0
 10
12.567296
 20
5.570178
 30
0.0
 10
12.615202
 20
5.497082
 30
0.0
 10
12.643848
 20
5.432877
 30
0.0
 10
12.653232
 20
5.377561
 30
0.0
 10
12.801396
 20
5.377561
 30
0.0
 10
12.949561
 20
5.377561
 30
0.0
 10
13.097726
 20
5.377561
 30
0.0
 10
13.245891
 20
5.377561
 30
0.0
 10
13.231732
 20
5.479810
 30
0.0
 10
13.203086
 20
5.584204
 30
0.0
 10
13.159954
 20
5.690687
 30
0.0
 10
13.102336
 20
5.799286
 30
0.0
 10
13.028746
 20
5.904865
 30
0.0
 10
12.937707
 20
6.002316
 30
0.0
 10
12.829218
 20
6.091611
 30
0.0
 10
12.703279
 20
6.172750
 30
0.0
 10
12.558406
 20
6.240625
 30
0.0
 10
12.393120
 20
6.290070
 30
0.0
 10
12.207420
 20
6.321086
 30
0.0
 10
12.001308
 20
6.333786
 30
0.0
 10
11.999332
 20
6.333786
 30
0.0
 10
11.997356
 20
6.333786
 30
0.0
 10
11.995381
 20
6.333786
 30
0.0
 10
11.993405
 20
6.333786
 30
0.0
 10
11.766415
 20
6.317700
 30
0.0
 10
11.560635
 20
6.275987
 30
0.0
 10
11.376065
 20
6.208649
 30
0.0
 10
11.212705
 20
6.115657
 30
0.0
 10
11.069868
 20
6.001808
 30
0.0
 10
10.946868
 20
5.871901
 30
0.0
 10
10.843706
 20
5.725964
 30
0.0
 10
10.760382
 20
5.563969
 30
0.0
 10
10.696209
 20
5.390713
 30
0.0
 10
10.650502
 20
5.211022
 30
0.0
 10
10.623262
 20
5.024868
 30
0.0
 10
10.614488
 20
4.832279
 30
0.0
 10
10.645741
 20
4.482663
 30
0.0
 10
10.722092
 20
4.180120
 30
0.0
 10
10.843541
 20
3.924596
 30
0.0
 10
11.010088
 20
3.716119
 30
0.0
 10
11.208674
 20
3.554293
 30
0.0
 10
11.426245
 20
3.438779
 30
0.0
 10
11.662799
 20
3.369578
 30
0.0
 10
11.918338
 20
3.346718
 30
0.0
 10
12.097446
 20
3.359983
 30
0.0
 10
12.253868
 20
3.389475
 30
0.0
 10
12.387602
 20
3.435054
 30
0.0
 10
12.498650
 20
3.496776
 30
0.0
 10
12.592471
 20
3.566626
 30
0.0
 10
12.674532
 20
3.636673
 30
0.0
 10
12.744833
 20
3.706890
 30
0.0
 10
12.803375
 20
3.777305
 30
0.0
 10
12.818192
 20
3.688405
 30
0.0
 10
12.833009
 20
3.599505
 30
0.0
 10
12.847825
 20
3.510605
 30
0.0
 10
12.862642
 20
3.421705
 30
0.0
 10
12.961418
 20
3.421705
 30
0.0
 10
13.060195
 20
3.421705
 30
0.0
 10
13.158972
 20
3.421705
 30
0.0
 10
13.257748
 20
3.421705
 30
0.0
 10
13.257748
 20
3.803975
 30
0.0
 10
13.257748
 20
4.186245
 30
0.0
 10
13.257748
 20
4.568486
 30
0.0
 10
13.257748
 20
4.950756
 30
0.0
 10
12.961418
 20
4.950756
 30
0.0
 10
12.665089
 20
4.950756
 30
0.0
 10
12.368759
 20
4.950756
 30
0.0
 10
12.072430
 20
4.950756
 30
0.0
 10
12.072430
 20
4.831235
 30
0.0
 10
12.072430
 20
4.711714
 30
0.0
 10
12.072430
 20
4.592193
 30
0.0
 10
12.072428
 20
4.472023
 30
0.0
  0
LWPOLYLINE
  5
101
100
AcDbEntity
  8
Layer_1
 62
7
100
AcDbPolyline
 90
7
 70
0
 10
14.404951
 20
6.257925
 30
0.0
 10
13.812292
 20
6.257925
 30
0.0
 10
13.812292
 20
3.421055
 30
0.0
 10
15.815479
 20
3.421055
 30
0.0
 10
15.815479
 20
3.934700
 30
0.0
 10
14.404951
 20
3.934700
 30
0.0
 10
14.404951
 20
6.257925
 30
0.0
  0
LWPOLYLINE
  5
102
100
AcDbEntity
  8
Layer_1
 62
7
100
AcDbPolyline
 90
5
 70
0
 10
16.772963
 20
6.257925
 30
0.0
 10
16.180304
 20
6.257925
 30
0.0
 10
16.180304
 20
3.421055
 30
0.0
 10
16.772963
 20
3.421055
 30
0.0
 10
16.772963
 20
6.257925
 30
0.0
  0
LWPOLYLINE
  5
103
100
AcDbEntity
  8
Layer_1
 62
7
100
AcDbPolyline
 90
13
 70
0
 10
19.054097
 20
4.282369
 30
0.0
 10
19.046195
 20
4.282369
 30
0.0
 10
17.920143
 20
6.257925
 30
0.0
 10
17.295875
 20
6.257925
 30
0.0
 10
17.295875
 20
3.421055
 30
0.0
 10
17.849024
 20
3.421055
 30
0.0
 10
17.849024
 20
5.443996
 30
0.0
 10
17.856926
 20
5.443996
 30
0.0
 10
19.014586
 20
3.421055
 30
0.0
 10
19.607246
 20
3.421055
 30
0.0
 10
19.607246
 20
6.257925
 30
0.0
 10
19.054097
 20
6.257925
 30
0.0
 10
19.054097
 20
4.282369
 30
0.0
  0
LWPOLYLINE
  5
104
100
AcDbEntity
  8
Layer_1
 62
7
100
AcDbPolyline
 90
9
 70
0
 10
21.383902
 20
5.756134
 30
0.0
 10
22.241282
 20
5.756134
 30
0.0
 10
22.241282
 20
6.257925
 30
0.0
 10
19.933862
 20
6.257925
 30
0.0
 10
19.933862
 20
5.756134
 30
0.0
 10
20.791243
 20
5.756134
 30
0.0
 10
20.791243
 20
3.421055
 30
0.0
 10
21.383902
 20
3.421055
 30
0.0
 10
21.383902
 20
5.756134
 30
0.0
  0
LWPOLYLINE
  5
105
100
AcDbEntity
  8
Layer_1
 62
7
100
AcDbPolyline
 90
17
 70
0
 10
26.412350
 20
6.257925
 30
0.0
 10
25.554970
 20
6.257925
 30
0.0
 10
25.049234
 20
4.021624
 30
0.0
 10
25.041332
 20
4.021624
 30
0.0
 10
24.527694
 20
6.257925
 30
0.0
 10
23.662412
 20
6.257925
 30
0.0
 10
23.662412
 20
3.421055
 30
0.0
 10
24.215560
 20
3.421055
 30
0.0
 10
24.215560
 20
5.791694
 30
0.0
 10
24.223462
 20
5.791694
 30
0.0
 10
24.741051
 20
3.421055
 30
0.0
 10
25.321857
 20
3.421055
 30
0.0
 10
25.851299
 20
5.791694
 30
0.0
 10
25.859202
 20
5.791694
 30
0.0
 10
25.859202
 20
3.421055
 30
0.0
 10
26.412350
 20
3.421055
 30
0.0
 10
26.412350
 20
6.257925
 30
0.0
  0
LWPOLYLINE
  5
106
100
AcDbEntity
  8
Layer_1
 62
7
100
AcDbPolyline
 90
49
 70
0
 10
26.851083
 20
4.839476
 30
0.0
 10
26.873514
 20
4.532136
 30
0.0
 10
26.925989
 20
4.266509
 30
0.0
 10
27.008509
 20
4.042650
 30
0.0
 10
27.121073
 20
3.860504
 30
0.0
 10
27.252569
 20
3.713099
 30
0.0
 10
27.391885
 20
3.593409
 30
0.0
 10
27.539021
 20
3.501489
 30
0.0
 10
27.693977
 20
3.437283
 30
0.0
 10
27.845639
 20
3.393849
 30
0.0
 10
27.982897
 20
3.364159
 30
0.0
 10
28.105751
 20
3.348073
 30
0.0
 10
28.214200
 20
3.345251
 30
0.0
 10
28.322646
 20
3.348073
 30
0.0
 10
28.445500
 20
3.364159
 30
0.0
 10
28.582759
 20
3.393877
 30
0.0
 10
28.734422
 20
3.437283
 30
0.0
 10
28.889376
 20
3.501489
 30
0.0
 10
29.036513
 20
3.593409
 30
0.0
 10
29.175829
 20
3.713099
 30
0.0
 10
29.307328
 20
3.860504
 30
0.0
 10
29.419889
 20
4.042650
 30
0.0
 10
29.502408
 20
4.266509
 30
0.0
 10
29.554885
 20
4.532136
 30
0.0
 10
29.577321
 20
4.839476
 30
0.0
 10
29.554885
 20
5.146816
 30
0.0
 10
29.502408
 20
5.412444
 30
0.0
 10
29.419889
 20
5.636331
 30
0.0
 10
29.307328
 20
5.818477
 30
0.0
 10
29.175829
 20
5.965881
 30
0.0
 10
29.036513
 20
6.085544
 30
0.0
 10
28.889376
 20
6.177492
 30
0.0
 10
28.734422
 20
6.241669
 30
0.0
 10
28.582759
 20
6.285103
 30
0.0
 10
28.445500
 20
6.314821
 30
0.0
 10
28.322646
 20
6.330908
 30
0.0
 10
28.214200
 20
6.333730
 30
0.0
 10
28.105751
 20
6.330908
 30
0.0
 10
27.982897
 20
6.314821
 30
0.0
 10
27.845639
 20
6.285131
 30
0.0
 10
27.693977
 20
6.241697
 30
0.0
 10
27.539021
 20
6.177520
 30
0.0
 10
27.391885
 20
6.085572
 30
0.0
 10
27.252569
 20
5.965910
 30
0.0
 10
27.121073
 20
5.818505
 30
0.0
 10
27.008509
 20
5.636359
 30
0.0
 10
26.925989
 20
5.412472
 30
0.0
 10
26.873514
 20
5.146844
 30
0.0
 10
26.851083
 20
4.839476
 30
0.0
  0
LWPOLYLINE
  5
107
100
AcDbEntity
  8
Layer_1
 62
7
100
AcDbPolyline
 90
33
 70
0
 10
27.443742
 20
4.839476
 30
0.0
 10
27.467125
 20
5.107757
 30
0.0
 10
27.519121
 20
5.329470
 30
0.0
 10
27.599732
 20
5.504589
 30
0.0
 10
27.708958
 20
5.633141
 30
0.0
 10
27.833185
 20
5.724469
 30
0.0
 10
27.958800
 20
5.787912
 30
0.0
 10
28.085805
 20
5.823500
 30
0.0
 10
28.214200
 20
5.831120
 30
0.0
 10
28.342593
 20
5.823500
 30
0.0
 10
28.469599
 20
5.787940
 30
0.0
 10
28.595213
 20
5.724497
 30
0.0
 10
28.719442
 20
5.633198
 30
0.0
 10
28.828668
 20
5.504646
 30
0.0
 10
28.909276
 20
5.329527
 30
0.0
 10
28.961272
 20
5.107813
 30
0.0
 10
28.984669
 20
4.839533
 30
0.0
 10
28.961272
 20
4.571252
 30
0.0
 10
28.909276
 20
4.349538
 30
0.0
 10
28.828665
 20
4.174419
 30
0.0
 10
28.719442
 20
4.045867
 30
0.0
 10
28.595213
 20
3.954540
 30
0.0
 10
28.469596
 20
3.891097
 30
0.0
 10
28.342593
 20
3.855537
 30
0.0
 10
28.214200
 20
3.847917
 30
0.0
 10
28.085805
 20
3.855537
 30
0.0
 10
27.958800
 20
3.891097
 30
0.0
 10
27.833184
 20
3.954568
 30
0.0
 10
27.708958
 20
4.045924
 30
0.0
 10
27.599733
 20
4.174476
 30
0.0
 10
27.519121
 20
4.349595
 30
0.0
 10
27.467125
 20
4.571309
 30
0.0
 10
27.443742
 20
4.839476
 30
0.0
  0
LWPOLYLINE
  5
108
100
AcDbEntity
  8
Layer_1
 62
7
100
AcDbPolyline
 90
37
 70
0
 10
30.048889
 20
3.421055
 30
0.0
 10
30.356085
 20
3.421055
 30
0.0
 10
30.663281
 20
3.421055
 30
0.0
 10
30.970474
 20
3.421055
 30
0.0
 10
31.277670
 20
3.421055
 30
0.0
 10
31.496756
 20
3.440529
 30
0.0
 10
31.690022
 20
3.488732
 30
0.0
 10
31.857473
 20
3.565525
 30
0.0
 10
31.999103
 20
3.670879
 30
0.0
 10
32.118069
 20
3.796891
 30
0.0
 10
32.217527
 20
3.935575
 30
0.0
 10
32.297474
 20
4.086931
 30
0.0
 10
32.357918
 20
4.250958
 30
0.0
 10
32.402004
 20
4.419699
 30
0.0
 10
32.432896
 20
4.585222
 30
0.0
 10
32.450591
 20
4.747500
 30
0.0
 10
32.455079
 20
4.906532
 30
0.0
 10
32.451607
 20
5.047897
 30
0.0
 10
32.436000
 20
5.193213
 30
0.0
 10
32.408286
 20
5.342481
 30
0.0
 10
32.368442
 20
5.495671
 30
0.0
 10
32.312568
 20
5.645277
 30
0.0
 10
32.236774
 20
5.783651
 30
0.0
 10
32.141064
 20
5.910876
 30
0.0
 10
32.025432
 20
6.026870
 30
0.0
 10
31.885980
 20
6.124123
 30
0.0
 10
31.718820
 20
6.195018
 30
0.0
 10
31.523946
 20
6.239581
 30
0.0
 10
31.301363
 20
6.257925
 30
0.0
 10
30.988240
 20
6.257925
 30
0.0
 10
30.675120
 20
6.257925
 30
0.0
 10
30.361997
 20
6.257925
 30
0.0
 10
30.048877
 20
6.257925
 30
0.0
 10
30.048877
 20
5.548701
 30
0.0
 10
30.048877
 20
4.839476
 30
0.0
 10
30.048877
 20
4.130280
 30
0.0
 10
30.048889
 20
3.421055
 30
0.0
  0
LWPOLYLINE
  5
109
100
AcDbEntity
  8
Layer_1
 62
7
100
AcDbPolyline
 90
33
 70
0
 10
30.629693
 20
5.767987
 30
0.0
 10
30.771931
 20
5.767987
 30
0.0
 10
30.914171
 20
5.767987
 30
0.0
 10
31.056411
 20
5.767987
 30
0.0
 10
31.198648
 20
5.767987
 30
0.0
 10
31.265540
 20
5.767987
 30
0.0
 10
31.334738
 20
5.759803
 30
0.0
 10
31.406242
 20
5.743998
 30
0.0
 10
31.480052
 20
5.720292
 30
0.0
 10
31.552377
 20
5.684083
 30
0.0
 10
31.619433
 20
5.630432
 30
0.0
 10
31.681225
 20
5.559340
 30
0.0
 10
31.737749
 20
5.470779
 30
0.0
 10
31.785216
 20
5.359894
 30
0.0
 10
31.819842
 20
5.221774
 30
0.0
 10
31.841629
 20
5.056477
 30
0.0
 10
31.850576
 20
4.863917
 30
0.0
 10
31.843605
 20
4.686173
 30
0.0
 10
31.817725
 20
4.518448
 30
0.0
 10
31.772964
 20
4.360714
 30
0.0
 10
31.709315
 20
4.212971
 30
0.0
 10
31.623068
 20
4.087100
 30
0.0
 10
31.510523
 20
3.994926
 30
0.0
 10
31.371681
 20
3.936478
 30
0.0
 10
31.206542
 20
3.911642
 30
0.0
 10
31.062329
 20
3.911642
 30
0.0
 10
30.918113
 20
3.911642
 30
0.0
 10
30.773898
 20
3.911642
 30
0.0
 10
30.629685
 20
3.911642
 30
0.0
 10
30.629685
 20
4.375898
 30
0.0
 10
30.629685
 20
4.840153
 30
0.0
 10
30.629685
 20
5.304381
 30
0.0
 10
30.629693
 20
5.767987
 30
0.0
  0
LWPOLYLINE
  5
10a
100
AcDbEntity
  8
Layer_1
 62
7
100
AcDbPolyline
 90
65
 70
0
 10
35.176045
 20
6.257925
 30
0.0
 10
35.024915
 20
6.257925
 30
0.0
 10
34.873788
 20
6.257925
 30
0.0
 10
34.722658
 20
6.257925
 30
0.0
 10
34.571531
 20
6.257925
 30
0.0
 10
34.571531
 20
5.790706
 30
0.0
 10
34.571531
 20
5.323487
 30
0.0
 10
34.571531
 20
4.856268
 30
0.0
 10
34.571531
 20
4.389049
 30
0.0
 10
34.564108
 20
4.266819
 30
0.0
 10
34.539301
 20
4.159462
 30
0.0
 10
34.497151
 20
4.067034
 30
0.0
 10
34.437698
 20
3.989507
 30
0.0
 10
34.359184
 20
3.928096
 30
0.0
 10
34.259836
 20
3.884013
 30
0.0
 10
34.139655
 20
3.857202
 30
0.0
 10
33.998637
 20
3.847606
 30
0.0
 10
33.896433
 20
3.856073
 30
0.0
 10
33.802932
 20
3.881473
 30
0.0
 10
33.718139
 20
3.924032
 30
0.0
 10
33.642052
 20
3.984089
 30
0.0
 10
33.578927
 20
4.062801
 30
0.0
 10
33.533026
 20
4.161127
 30
0.0
 10
33.504350
 20
4.279096
 30
0.0
 10
33.492892
 20
4.416707
 30
0.0
 10
33.492892
 20
4.877012
 30
0.0
 10
33.492892
 20
5.337316
 30
0.0
 10
33.492892
 20
5.797621
 30
0.0
 10
33.492892
 20
6.257925
 30
0.0
 10
33.341764
 20
6.257925
 30
0.0
 10
33.190634
 20
6.257925
 30
0.0
 10
33.039507
 20
6.257925
 30
0.0
 10
32.888380
 20
6.257925
 30
0.0
 10
32.888380
 20
5.787743
 30
0.0
 10
32.888380
 20
5.317561
 30
0.0
 10
32.888380
 20
4.847378
 30
0.0
 10
32.888380
 20
4.377196
 30
0.0
 10
32.893573
 20
4.273113
 30
0.0
 10
32.904608
 20
4.174222
 30
0.0
 10
32.921485
 20
4.080524
 30
0.0
 10
32.944175
 20
3.991991
 30
0.0
 10
32.973730
 20
3.908651
 30
0.0
 10
33.011158
 20
3.830475
 30
0.0
 10
33.056455
 20
3.757521
 30
0.0
 10
33.109625
 20
3.689731
 30
0.0
 10
33.211764
 20
3.595328
 30
0.0
 10
33.320389
 20
3.517660
 30
0.0
 10
33.435493
 20
3.456785
 30
0.0
 10
33.557083
 20
3.412645
 30
0.0
 10
33.679040
 20
3.381685
 30
0.0
 10
33.795256
 20
3.360237
 30
0.0
 10
33.905732
 20
3.348383
 30
0.0
 10
34.010467
 20
3.345561
 30
0.0
 10
34.266959
 20
3.359954
 30
0.0
 10
34.494284
 20
3.407057
 30
0.0
 10
34.692440
 20
3.486785
 30
0.0
 10
34.861427
 20
3.598968
 30
0.0
 10
34.996888
 20
3.746063
 30
0.0
 10
35.094477
 20
3.930664
 30
0.0
 10
35.154190
 20
4.152773
 30
0.0
 10
35.176034
 20
4.412389
 30
0.0
 10
35.176034
 20
4.873681
 30
0.0
 10
35.176034
 20
5.334974
 30
0.0
 10
35.176034
 20
5.796266
 30
0.0
 10
35.176045
 20
6.257925
 30
0.0
  0
LWPOLYLINE
  5
10b
100
AcDbEntity
  8
Layer_1
 62
7
100
AcDbPolyline
 90
7
 70
0
 10
36.352139
 20
6.257925
 30
0.0
 10
35.759480
 20
6.257925
 30
0.0
 10
35.759480
 20
3.421055
 30
0.0
 10
37.762665
 20
3.421055
 30
0.0
 10
37.762665
 20
3.934700
 30
0.0
 10
36.352139
 20
3.934700
 30
0.0
 10
36.352139
 20
6.257925
 30
0.0
  0
LWPOLYLINE
  5
10c
100
AcDbEntity
  8
Layer_1
 62
7
100
AcDbPolyline
 90
13
 70
0
 10
40.261063
 20
6.257925
 30
0.0
 10
38.174905
 20
6.257925
 30
0.0
 10
38.174905
 20
3.421055
 30
0.0
 10
40.328232
 20
3.421055
 30
0.0
 10
40.328232
 20
3.922847
 30
0.0
 10
38.755709
 20
3.922847
 30
0.0
 10
38.755709
 20
4.657725
 30
0.0
 10
40.138581
 20
4.657725
 30
0.0
 10
40.138581
 20
5.159516
 30
0.0
 10
38.755709
 20
5.159516
 30
0.0
 10
38.755709
 20
5.756134
 30
0.0
 10
40.261063
 20
5.756134
 30
0.0
 10
40.261063
 20
6.257925
 30
0.0
  0
ENDSEC
  0
SECTION
  2
OBJECTS
  0
DICTIONARY
  5
C
330
0
100
AcDbDictionary
  3
ACAD_GROUP
350
D
  3
ACAD_MLINESTYLE
350
17
  0
DICTIONARY
  5
D
330
C
100
AcDbDictionary
  0
DICTIONARY
  5
1A
330
C
100
AcDbDictionary
  0
DICTIONARY
  5
17
330
C
100
AcDbDictionary
  3
STANDARD
350
18
  0
DICTIONARY
  5
19
330
C
100
AcDbDictionary
  0
ENDSEC
  0
EOF
