solid OpenSCAD_Model
  facet normal -1 -0 -0
    outer loop
      vertex -25.4 -45.8 0
      vertex -25.4 -45.8 5.85
      vertex -25.4 45.8 0
    endloop
  endfacet
  facet normal -1 0 0
    outer loop
      vertex -25.4 45.8 0
      vertex -25.4 -45.8 5.85
      vertex -25.4 45.8 5.85
    endloop
  endfacet
  facet normal -0.980785 -0.19509 -0
    outer loop
      vertex -25.4 -45.8 0
      vertex -25.0194 -47.7134 0
      vertex -25.4 -45.8 5.85
    endloop
  endfacet
  facet normal -0.980785 -0.19509 0
    outer loop
      vertex -25.4 -45.8 5.85
      vertex -25.0194 -47.7134 0
      vertex -25.0194 -47.7134 5.85
    endloop
  endfacet
  facet normal -0 -0 -1
    outer loop
      vertex -25.4 -45.8 0
      vertex -25.4 45.8 0
      vertex -25.0194 -47.7134 0
    endloop
  endfacet
  facet normal 0 0 -1
    outer loop
      vertex -25.0194 -47.7134 0
      vertex -25.4 45.8 0
      vertex -25.0194 47.7134 0
    endloop
  endfacet
  facet normal 0 -0 -1
    outer loop
      vertex -25.0194 -47.7134 0
      vertex -25.0194 47.7134 0
      vertex -23.9355 49.3355 0
    endloop
  endfacet
  facet normal 0 0 -1
    outer loop
      vertex -25.0194 -47.7134 0
      vertex -23.9355 49.3355 0
      vertex -22.3134 50.4194 0
    endloop
  endfacet
  facet normal 0 0 -1
    outer loop
      vertex -25.0194 -47.7134 0
      vertex -22.3134 50.4194 0
      vertex -20.4 50.8 0
    endloop
  endfacet
  facet normal 0 -0 -1
    outer loop
      vertex 10.16 42.4 0
      vertex -20.4 50.8 0
      vertex 20.4 50.8 0
    endloop
  endfacet
  facet normal 0 0 -1
    outer loop
      vertex 14.2495 36.7712 0
      vertex 20.4 50.8 0
      vertex 22.3134 50.4194 0
    endloop
  endfacet
  facet normal 0 0 -1
    outer loop
      vertex -25.0194 -47.7134 0
      vertex 22.3134 50.4194 0
      vertex 23.9355 49.3355 0
    endloop
  endfacet
  facet normal 0 0 -1
    outer loop
      vertex -25.0194 -47.7134 0
      vertex 23.9355 49.3355 0
      vertex 25.0194 47.7134 0
    endloop
  endfacet
  facet normal 0 0 -1
    outer loop
      vertex -25.0194 -47.7134 0
      vertex 25.0194 47.7134 0
      vertex 25.4 45.8 0
    endloop
  endfacet
  facet normal -0 0 -1
    outer loop
      vertex 14.46 -38.1 0
      vertex 25.4 45.8 0
      vertex 25.4 -45.8 0
    endloop
  endfacet
  facet normal -0 0 -1
    outer loop
      vertex -25.0194 -47.7134 0
      vertex 25.4 -45.8 0
      vertex 25.0194 -47.7134 0
    endloop
  endfacet
  facet normal 0 0 -1
    outer loop
      vertex -25.0194 -47.7134 0
      vertex 25.0194 -47.7134 0
      vertex 23.9355 -49.3355 0
    endloop
  endfacet
  facet normal 0 0 -1
    outer loop
      vertex -25.0194 -47.7134 0
      vertex 23.9355 -49.3355 0
      vertex 22.3134 -50.4194 0
    endloop
  endfacet
  facet normal 0 0 -1
    outer loop
      vertex -25.0194 -47.7134 0
      vertex 22.3134 -50.4194 0
      vertex 20.4 -50.8 0
    endloop
  endfacet
  facet normal 0 0 -1
    outer loop
      vertex -25.0194 -47.7134 0
      vertex 20.4 -50.8 0
      vertex -20.4 -50.8 0
    endloop
  endfacet
  facet normal 0 0 -1
    outer loop
      vertex -25.0194 -47.7134 0
      vertex -20.4 -50.8 0
      vertex -22.3134 -50.4194 0
    endloop
  endfacet
  facet normal 0 0 -1
    outer loop
      vertex -25.0194 -47.7134 0
      vertex -22.3134 -50.4194 0
      vertex -23.9355 -49.3355 0
    endloop
  endfacet
  facet normal 0 0 -1
    outer loop
      vertex 13.6388 35.5725 0
      vertex -25.0194 -47.7134 0
      vertex 12.6875 34.6212 0
    endloop
  endfacet
  facet normal 0 0 -1
    outer loop
      vertex -25.0194 -47.7134 0
      vertex 5.86 -38.1 0
      vertex 6.07046 -39.4288 0
    endloop
  endfacet
  facet normal 0 0 -1
    outer loop
      vertex -25.0194 -47.7134 0
      vertex 6.07046 -39.4288 0
      vertex 6.68123 -40.6275 0
    endloop
  endfacet
  facet normal 0 0 -1
    outer loop
      vertex -25.0194 -47.7134 0
      vertex 6.68123 -40.6275 0
      vertex 7.63252 -41.5788 0
    endloop
  endfacet
  facet normal 0 0 -1
    outer loop
      vertex -25.0194 -47.7134 0
      vertex 7.63252 -41.5788 0
      vertex 8.83123 -42.1895 0
    endloop
  endfacet
  facet normal 0 0 -1
    outer loop
      vertex -25.0194 -47.7134 0
      vertex 8.83123 -42.1895 0
      vertex 25.4 -45.8 0
    endloop
  endfacet
  facet normal 0 0 -1
    outer loop
      vertex 8.83123 -42.1895 0
      vertex 10.16 -42.4 0
      vertex 25.4 -45.8 0
    endloop
  endfacet
  facet normal 0 0 -1
    outer loop
      vertex 12.6875 -41.5788 0
      vertex 25.4 -45.8 0
      vertex 11.4888 -42.1895 0
    endloop
  endfacet
  facet normal 0 0 -1
    outer loop
      vertex 13.6388 -40.6275 0
      vertex 25.4 -45.8 0
      vertex 12.6875 -41.5788 0
    endloop
  endfacet
  facet normal 0 0 -1
    outer loop
      vertex 6.07046 -36.7712 0
      vertex 25.4 45.8 0
      vertex 6.68123 -35.5725 0
    endloop
  endfacet
  facet normal -0 0 -1
    outer loop
      vertex 14.2495 -36.7712 0
      vertex 25.4 45.8 0
      vertex 14.46 -38.1 0
    endloop
  endfacet
  facet normal -0 0 -1
    outer loop
      vertex 13.6388 -35.5725 0
      vertex 25.4 45.8 0
      vertex 14.2495 -36.7712 0
    endloop
  endfacet
  facet normal -0 0 -1
    outer loop
      vertex 13.6388 -40.6275 0
      vertex 14.2495 -39.4288 0
      vertex 25.4 -45.8 0
    endloop
  endfacet
  facet normal -0 0 -1
    outer loop
      vertex 14.2495 -39.4288 0
      vertex 14.46 -38.1 0
      vertex 25.4 -45.8 0
    endloop
  endfacet
  facet normal -0 0 -1
    outer loop
      vertex 12.6875 -34.6212 0
      vertex 25.4 45.8 0
      vertex 13.6388 -35.5725 0
    endloop
  endfacet
  facet normal -0 0 -1
    outer loop
      vertex 11.4888 -34.0105 0
      vertex 25.4 45.8 0
      vertex 12.6875 -34.6212 0
    endloop
  endfacet
  facet normal -0 0 -1
    outer loop
      vertex 10.16 -33.8 0
      vertex 25.4 45.8 0
      vertex 11.4888 -34.0105 0
    endloop
  endfacet
  facet normal 0 0 -1
    outer loop
      vertex 8.83123 -34.0105 0
      vertex 25.4 45.8 0
      vertex 10.16 -33.8 0
    endloop
  endfacet
  facet normal 0 0 -1
    outer loop
      vertex 7.63252 -34.6212 0
      vertex 25.4 45.8 0
      vertex 8.83123 -34.0105 0
    endloop
  endfacet
  facet normal 0 0 -1
    outer loop
      vertex 6.68123 -35.5725 0
      vertex 25.4 45.8 0
      vertex 7.63252 -34.6212 0
    endloop
  endfacet
  facet normal -0 0 -1
    outer loop
      vertex 14.2495 39.4288 0
      vertex 20.4 50.8 0
      vertex 14.46 38.1 0
    endloop
  endfacet
  facet normal 0 0 -1
    outer loop
      vertex -25.0194 -47.7134 0
      vertex 25.4 45.8 0
      vertex 6.07046 -36.7712 0
    endloop
  endfacet
  facet normal 0 0 -1
    outer loop
      vertex -25.0194 -47.7134 0
      vertex 6.07046 -36.7712 0
      vertex 5.86 -38.1 0
    endloop
  endfacet
  facet normal 0 0 -1
    outer loop
      vertex -25.0194 -47.7134 0
      vertex -20.4 50.8 0
      vertex 5.86 38.1 0
    endloop
  endfacet
  facet normal 0 0 -1
    outer loop
      vertex -25.0194 -47.7134 0
      vertex 5.86 38.1 0
      vertex 6.07046 36.7712 0
    endloop
  endfacet
  facet normal 0 0 -1
    outer loop
      vertex -25.0194 -47.7134 0
      vertex 6.07046 36.7712 0
      vertex 6.68123 35.5725 0
    endloop
  endfacet
  facet normal 0 0 -1
    outer loop
      vertex -25.0194 -47.7134 0
      vertex 6.68123 35.5725 0
      vertex 7.63252 34.6212 0
    endloop
  endfacet
  facet normal 0 0 -1
    outer loop
      vertex -25.0194 -47.7134 0
      vertex 7.63252 34.6212 0
      vertex 8.83123 34.0105 0
    endloop
  endfacet
  facet normal 0 0 -1
    outer loop
      vertex -25.0194 -47.7134 0
      vertex 8.83123 34.0105 0
      vertex 10.16 33.8 0
    endloop
  endfacet
  facet normal 0 0 -1
    outer loop
      vertex -25.0194 -47.7134 0
      vertex 10.16 33.8 0
      vertex 11.4888 34.0105 0
    endloop
  endfacet
  facet normal 0 0 -1
    outer loop
      vertex -25.0194 -47.7134 0
      vertex 11.4888 34.0105 0
      vertex 12.6875 34.6212 0
    endloop
  endfacet
  facet normal -0 0 -1
    outer loop
      vertex 14.46 38.1 0
      vertex 20.4 50.8 0
      vertex 14.2495 36.7712 0
    endloop
  endfacet
  facet normal 0 0 -1
    outer loop
      vertex -25.0194 -47.7134 0
      vertex 13.6388 35.5725 0
      vertex 22.3134 50.4194 0
    endloop
  endfacet
  facet normal 0 0 -1
    outer loop
      vertex 13.6388 35.5725 0
      vertex 14.2495 36.7712 0
      vertex 22.3134 50.4194 0
    endloop
  endfacet
  facet normal -0 0 -1
    outer loop
      vertex 13.6388 40.6275 0
      vertex 20.4 50.8 0
      vertex 14.2495 39.4288 0
    endloop
  endfacet
  facet normal -0 0 -1
    outer loop
      vertex 12.6875 41.5788 0
      vertex 20.4 50.8 0
      vertex 13.6388 40.6275 0
    endloop
  endfacet
  facet normal -0 0 -1
    outer loop
      vertex 11.4888 42.1895 0
      vertex 20.4 50.8 0
      vertex 12.6875 41.5788 0
    endloop
  endfacet
  facet normal -0 0 -1
    outer loop
      vertex 10.16 42.4 0
      vertex 20.4 50.8 0
      vertex 11.4888 42.1895 0
    endloop
  endfacet
  facet normal 0 -0 -1
    outer loop
      vertex 8.83123 42.1895 0
      vertex -20.4 50.8 0
      vertex 10.16 42.4 0
    endloop
  endfacet
  facet normal 0 -0 -1
    outer loop
      vertex 7.63252 41.5788 0
      vertex -20.4 50.8 0
      vertex 8.83123 42.1895 0
    endloop
  endfacet
  facet normal 0 -0 -1
    outer loop
      vertex 6.68123 40.6275 0
      vertex -20.4 50.8 0
      vertex 7.63252 41.5788 0
    endloop
  endfacet
  facet normal 0 -0 -1
    outer loop
      vertex 6.07046 39.4288 0
      vertex -20.4 50.8 0
      vertex 6.68123 40.6275 0
    endloop
  endfacet
  facet normal 0 -0 -1
    outer loop
      vertex 5.86 38.1 0
      vertex -20.4 50.8 0
      vertex 6.07046 39.4288 0
    endloop
  endfacet
  facet normal 0 0 -1
    outer loop
      vertex 11.4888 -42.1895 0
      vertex 25.4 -45.8 0
      vertex 10.16 -42.4 0
    endloop
  endfacet
  facet normal -0.980785 0.19509 0
    outer loop
      vertex -25.4 45.8 0
      vertex -25.4 45.8 5.85
      vertex -25.0194 47.7134 0
    endloop
  endfacet
  facet normal -0.980785 0.19509 0
    outer loop
      vertex -25.0194 47.7134 0
      vertex -25.4 45.8 5.85
      vertex -25.0194 47.7134 5.85
    endloop
  endfacet
  facet normal 0 0 1
    outer loop
      vertex -25.0194 -47.7134 5.85
      vertex -23.9355 -49.3355 5.85
      vertex -22.3134 -50.4194 5.85
    endloop
  endfacet
  facet normal -0 0 1
    outer loop
      vertex -5.4 -50.8 5.85
      vertex -25.0194 -47.7134 5.85
      vertex -20.4 -50.8 5.85
    endloop
  endfacet
  facet normal 0 0 1
    outer loop
      vertex -20.4 -50.8 5.85
      vertex -25.0194 -47.7134 5.85
      vertex -22.3134 -50.4194 5.85
    endloop
  endfacet
  facet normal 0 0 1
    outer loop
      vertex -5.4 50.8 5.85
      vertex -25.0194 -47.7134 5.85
      vertex -5.4 -50.8 5.85
    endloop
  endfacet
  facet normal 0 -0 1
    outer loop
      vertex -20.4 50.8 5.85
      vertex -25.0194 -47.7134 5.85
      vertex -5.4 50.8 5.85
    endloop
  endfacet
  facet normal 0 -0 1
    outer loop
      vertex -22.3134 50.4194 5.85
      vertex -25.0194 -47.7134 5.85
      vertex -20.4 50.8 5.85
    endloop
  endfacet
  facet normal 0 -0 1
    outer loop
      vertex -23.9355 49.3355 5.85
      vertex -25.0194 -47.7134 5.85
      vertex -22.3134 50.4194 5.85
    endloop
  endfacet
  facet normal 0 -0 1
    outer loop
      vertex -25.0194 47.7134 5.85
      vertex -25.0194 -47.7134 5.85
      vertex -23.9355 49.3355 5.85
    endloop
  endfacet
  facet normal 0 0 1
    outer loop
      vertex -25.4 45.8 5.85
      vertex -25.0194 -47.7134 5.85
      vertex -25.0194 47.7134 5.85
    endloop
  endfacet
  facet normal 0 0 1
    outer loop
      vertex -25.4 -45.8 5.85
      vertex -25.0194 -47.7134 5.85
      vertex -25.4 45.8 5.85
    endloop
  endfacet
  facet normal -0.83147 -0.55557 -0
    outer loop
      vertex -25.0194 -47.7134 0
      vertex -23.9355 -49.3355 0
      vertex -25.0194 -47.7134 5.85
    endloop
  endfacet
  facet normal -0.83147 -0.55557 0
    outer loop
      vertex -25.0194 -47.7134 5.85
      vertex -23.9355 -49.3355 0
      vertex -23.9355 -49.3355 5.85
    endloop
  endfacet
  facet normal -0.55557 -0.83147 0
    outer loop
      vertex -23.9355 -49.3355 5.85
      vertex -23.9355 -49.3355 0
      vertex -22.3134 -50.4194 0
    endloop
  endfacet
  facet normal -0.55557 -0.83147 0
    outer loop
      vertex -22.3134 -50.4194 5.85
      vertex -23.9355 -49.3355 5.85
      vertex -22.3134 -50.4194 0
    endloop
  endfacet
  facet normal -0.19509 -0.980785 0
    outer loop
      vertex -22.3134 -50.4194 5.85
      vertex -22.3134 -50.4194 0
      vertex -20.4 -50.8 0
    endloop
  endfacet
  facet normal -0.19509 -0.980785 0
    outer loop
      vertex -20.4 -50.8 5.85
      vertex -22.3134 -50.4194 5.85
      vertex -20.4 -50.8 0
    endloop
  endfacet
  facet normal 0 -1 0
    outer loop
      vertex -20.4 -50.8 5.85
      vertex -20.4 -50.8 0
      vertex 20.4 -50.8 0
    endloop
  endfacet
  facet normal 0 -1 0
    outer loop
      vertex -5.4 -50.8 5.85
      vertex -20.4 -50.8 5.85
      vertex 20.4 -50.8 0
    endloop
  endfacet
  facet normal 0 -1 0
    outer loop
      vertex 20.4 -50.8 12.7
      vertex -5.4 -50.8 5.85
      vertex 20.4 -50.8 0
    endloop
  endfacet
  facet normal 0 -1 0
    outer loop
      vertex -5.4 -50.8 12.7
      vertex -5.4 -50.8 5.85
      vertex 20.4 -50.8 12.7
    endloop
  endfacet
  facet normal 0.19509 -0.980785 0
    outer loop
      vertex 20.4 -50.8 12.7
      vertex 20.4 -50.8 0
      vertex 22.3134 -50.4194 0
    endloop
  endfacet
  facet normal 0.19509 -0.980785 0
    outer loop
      vertex 22.3134 -50.4194 12.7
      vertex 20.4 -50.8 12.7
      vertex 22.3134 -50.4194 0
    endloop
  endfacet
  facet normal 0.55557 -0.83147 0
    outer loop
      vertex 22.3134 -50.4194 12.7
      vertex 22.3134 -50.4194 0
      vertex 23.9355 -49.3355 0
    endloop
  endfacet
  facet normal 0.55557 -0.83147 0
    outer loop
      vertex 23.9355 -49.3355 12.7
      vertex 22.3134 -50.4194 12.7
      vertex 23.9355 -49.3355 0
    endloop
  endfacet
  facet normal 0.83147 -0.55557 0
    outer loop
      vertex 23.9355 -49.3355 12.7
      vertex 23.9355 -49.3355 0
      vertex 25.0194 -47.7134 0
    endloop
  endfacet
  facet normal 0.83147 -0.55557 0
    outer loop
      vertex 25.0194 -47.7134 12.7
      vertex 23.9355 -49.3355 12.7
      vertex 25.0194 -47.7134 0
    endloop
  endfacet
  facet normal 0.980785 -0.19509 0
    outer loop
      vertex 25.0194 -47.7134 12.7
      vertex 25.0194 -47.7134 0
      vertex 25.4 -45.8 0
    endloop
  endfacet
  facet normal 0.980785 -0.19509 0
    outer loop
      vertex 25.4 -45.8 12.7
      vertex 25.0194 -47.7134 12.7
      vertex 25.4 -45.8 0
    endloop
  endfacet
  facet normal 1 0 -0
    outer loop
      vertex 25.4 -45.8 12.7
      vertex 25.4 -45.8 0
      vertex 25.4 45.8 0
    endloop
  endfacet
  facet normal 1 0 0
    outer loop
      vertex 25.4 45.8 12.7
      vertex 25.4 -45.8 12.7
      vertex 25.4 45.8 0
    endloop
  endfacet
  facet normal 0.980785 0.19509 0
    outer loop
      vertex 25.4 45.8 0
      vertex 25.0194 47.7134 0
      vertex 25.0194 47.7134 12.7
    endloop
  endfacet
  facet normal 0.980785 0.19509 -0
    outer loop
      vertex 25.4 45.8 12.7
      vertex 25.4 45.8 0
      vertex 25.0194 47.7134 12.7
    endloop
  endfacet
  facet normal 0.83147 0.55557 0
    outer loop
      vertex 25.0194 47.7134 0
      vertex 23.9355 49.3355 0
      vertex 23.9355 49.3355 12.7
    endloop
  endfacet
  facet normal 0.83147 0.55557 -0
    outer loop
      vertex 25.0194 47.7134 12.7
      vertex 25.0194 47.7134 0
      vertex 23.9355 49.3355 12.7
    endloop
  endfacet
  facet normal 0.55557 0.83147 0
    outer loop
      vertex 22.3134 50.4194 0
      vertex 22.3134 50.4194 12.7
      vertex 23.9355 49.3355 0
    endloop
  endfacet
  facet normal 0.55557 0.83147 0
    outer loop
      vertex 23.9355 49.3355 0
      vertex 22.3134 50.4194 12.7
      vertex 23.9355 49.3355 12.7
    endloop
  endfacet
  facet normal 0.19509 0.980785 0
    outer loop
      vertex 20.4 50.8 0
      vertex 20.4 50.8 12.7
      vertex 22.3134 50.4194 0
    endloop
  endfacet
  facet normal 0.19509 0.980785 0
    outer loop
      vertex 22.3134 50.4194 0
      vertex 20.4 50.8 12.7
      vertex 22.3134 50.4194 12.7
    endloop
  endfacet
  facet normal 0 1 0
    outer loop
      vertex -20.4 50.8 0
      vertex -20.4 50.8 5.85
      vertex 20.4 50.8 0
    endloop
  endfacet
  facet normal 0 1 0
    outer loop
      vertex 20.4 50.8 0
      vertex -20.4 50.8 5.85
      vertex -5.4 50.8 5.85
    endloop
  endfacet
  facet normal 0 1 0
    outer loop
      vertex 20.4 50.8 0
      vertex -5.4 50.8 5.85
      vertex -5.4 50.8 12.7
    endloop
  endfacet
  facet normal 0 1 0
    outer loop
      vertex 20.4 50.8 0
      vertex -5.4 50.8 12.7
      vertex 20.4 50.8 12.7
    endloop
  endfacet
  facet normal -0.19509 0.980785 0
    outer loop
      vertex -22.3134 50.4194 0
      vertex -22.3134 50.4194 5.85
      vertex -20.4 50.8 0
    endloop
  endfacet
  facet normal -0.19509 0.980785 0
    outer loop
      vertex -20.4 50.8 0
      vertex -22.3134 50.4194 5.85
      vertex -20.4 50.8 5.85
    endloop
  endfacet
  facet normal -0.55557 0.83147 0
    outer loop
      vertex -23.9355 49.3355 0
      vertex -23.9355 49.3355 5.85
      vertex -22.3134 50.4194 0
    endloop
  endfacet
  facet normal -0.55557 0.83147 0
    outer loop
      vertex -22.3134 50.4194 0
      vertex -23.9355 49.3355 5.85
      vertex -22.3134 50.4194 5.85
    endloop
  endfacet
  facet normal -0.83147 0.55557 0
    outer loop
      vertex -25.0194 47.7134 0
      vertex -25.0194 47.7134 5.85
      vertex -23.9355 49.3355 0
    endloop
  endfacet
  facet normal -0.83147 0.55557 0
    outer loop
      vertex -23.9355 49.3355 0
      vertex -25.0194 47.7134 5.85
      vertex -23.9355 49.3355 5.85
    endloop
  endfacet
  facet normal 0.987688 -0.156434 0
    outer loop
      vertex 6.07046 -36.7712 0
      vertex 6.07046 -36.7712 12.7
      vertex 5.86 -38.1 12.7
    endloop
  endfacet
  facet normal 0.987688 -0.156434 0
    outer loop
      vertex 5.86 -38.1 0
      vertex 6.07046 -36.7712 0
      vertex 5.86 -38.1 12.7
    endloop
  endfacet
  facet normal 0.987688 0.156434 0
    outer loop
      vertex 5.86 -38.1 12.7
      vertex 6.07046 -39.4288 12.7
      vertex 6.07046 -39.4288 0
    endloop
  endfacet
  facet normal 0.987688 0.156434 0
    outer loop
      vertex 5.86 -38.1 0
      vertex 5.86 -38.1 12.7
      vertex 6.07046 -39.4288 0
    endloop
  endfacet
  facet normal 0.891007 -0.45399 0
    outer loop
      vertex 6.68123 -35.5725 0
      vertex 6.68123 -35.5725 12.7
      vertex 6.07046 -36.7712 12.7
    endloop
  endfacet
  facet normal 0.891007 -0.45399 0
    outer loop
      vertex 6.07046 -36.7712 0
      vertex 6.68123 -35.5725 0
      vertex 6.07046 -36.7712 12.7
    endloop
  endfacet
  facet normal 0.707107 -0.707107 0
    outer loop
      vertex 7.63252 -34.6212 0
      vertex 7.63252 -34.6212 12.7
      vertex 6.68123 -35.5725 12.7
    endloop
  endfacet
  facet normal 0.707107 -0.707107 0
    outer loop
      vertex 6.68123 -35.5725 0
      vertex 7.63252 -34.6212 0
      vertex 6.68123 -35.5725 12.7
    endloop
  endfacet
  facet normal 0.45399 -0.891007 0
    outer loop
      vertex 8.83123 -34.0105 0
      vertex 8.83123 -34.0105 12.7
      vertex 7.63252 -34.6212 12.7
    endloop
  endfacet
  facet normal 0.45399 -0.891007 0
    outer loop
      vertex 7.63252 -34.6212 0
      vertex 8.83123 -34.0105 0
      vertex 7.63252 -34.6212 12.7
    endloop
  endfacet
  facet normal 0.156434 -0.987688 0
    outer loop
      vertex 10.16 -33.8 0
      vertex 10.16 -33.8 12.7
      vertex 8.83123 -34.0105 12.7
    endloop
  endfacet
  facet normal 0.156434 -0.987688 0
    outer loop
      vertex 8.83123 -34.0105 0
      vertex 10.16 -33.8 0
      vertex 8.83123 -34.0105 12.7
    endloop
  endfacet
  facet normal -0.156434 -0.987688 -0
    outer loop
      vertex 11.4888 -34.0105 0
      vertex 11.4888 -34.0105 12.7
      vertex 10.16 -33.8 12.7
    endloop
  endfacet
  facet normal -0.156434 -0.987688 -0
    outer loop
      vertex 10.16 -33.8 0
      vertex 11.4888 -34.0105 0
      vertex 10.16 -33.8 12.7
    endloop
  endfacet
  facet normal -0.45399 -0.891007 -0
    outer loop
      vertex 12.6875 -34.6212 0
      vertex 12.6875 -34.6212 12.7
      vertex 11.4888 -34.0105 12.7
    endloop
  endfacet
  facet normal -0.45399 -0.891007 -0
    outer loop
      vertex 11.4888 -34.0105 0
      vertex 12.6875 -34.6212 0
      vertex 11.4888 -34.0105 12.7
    endloop
  endfacet
  facet normal -0.707107 -0.707107 -0
    outer loop
      vertex 13.6388 -35.5725 0
      vertex 13.6388 -35.5725 12.7
      vertex 12.6875 -34.6212 12.7
    endloop
  endfacet
  facet normal -0.707107 -0.707107 -0
    outer loop
      vertex 12.6875 -34.6212 0
      vertex 13.6388 -35.5725 0
      vertex 12.6875 -34.6212 12.7
    endloop
  endfacet
  facet normal -0.891007 -0.45399 0
    outer loop
      vertex 14.2495 -36.7712 12.7
      vertex 13.6388 -35.5725 12.7
      vertex 14.2495 -36.7712 0
    endloop
  endfacet
  facet normal -0.891007 -0.45399 0
    outer loop
      vertex 14.2495 -36.7712 0
      vertex 13.6388 -35.5725 12.7
      vertex 13.6388 -35.5725 0
    endloop
  endfacet
  facet normal -0.987688 -0.156434 0
    outer loop
      vertex 14.46 -38.1 12.7
      vertex 14.2495 -36.7712 12.7
      vertex 14.46 -38.1 0
    endloop
  endfacet
  facet normal -0.987688 -0.156434 0
    outer loop
      vertex 14.46 -38.1 0
      vertex 14.2495 -36.7712 12.7
      vertex 14.2495 -36.7712 0
    endloop
  endfacet
  facet normal -0.987688 0.156434 0
    outer loop
      vertex 14.46 -38.1 12.7
      vertex 14.46 -38.1 0
      vertex 14.2495 -39.4288 12.7
    endloop
  endfacet
  facet normal -0.987688 0.156434 0
    outer loop
      vertex 14.2495 -39.4288 12.7
      vertex 14.46 -38.1 0
      vertex 14.2495 -39.4288 0
    endloop
  endfacet
  facet normal -0.891007 0.45399 0
    outer loop
      vertex 14.2495 -39.4288 12.7
      vertex 14.2495 -39.4288 0
      vertex 13.6388 -40.6275 12.7
    endloop
  endfacet
  facet normal -0.891007 0.45399 0
    outer loop
      vertex 13.6388 -40.6275 12.7
      vertex 14.2495 -39.4288 0
      vertex 13.6388 -40.6275 0
    endloop
  endfacet
  facet normal -0.707107 0.707107 0
    outer loop
      vertex 13.6388 -40.6275 12.7
      vertex 13.6388 -40.6275 0
      vertex 12.6875 -41.5788 12.7
    endloop
  endfacet
  facet normal -0.707107 0.707107 0
    outer loop
      vertex 12.6875 -41.5788 12.7
      vertex 13.6388 -40.6275 0
      vertex 12.6875 -41.5788 0
    endloop
  endfacet
  facet normal -0.45399 0.891007 0
    outer loop
      vertex 12.6875 -41.5788 12.7
      vertex 12.6875 -41.5788 0
      vertex 11.4888 -42.1895 12.7
    endloop
  endfacet
  facet normal -0.45399 0.891007 0
    outer loop
      vertex 11.4888 -42.1895 12.7
      vertex 12.6875 -41.5788 0
      vertex 11.4888 -42.1895 0
    endloop
  endfacet
  facet normal -0.156434 0.987688 0
    outer loop
      vertex 11.4888 -42.1895 12.7
      vertex 11.4888 -42.1895 0
      vertex 10.16 -42.4 12.7
    endloop
  endfacet
  facet normal -0.156434 0.987688 0
    outer loop
      vertex 10.16 -42.4 12.7
      vertex 11.4888 -42.1895 0
      vertex 10.16 -42.4 0
    endloop
  endfacet
  facet normal 0.156434 0.987688 -0
    outer loop
      vertex 10.16 -42.4 12.7
      vertex 10.16 -42.4 0
      vertex 8.83123 -42.1895 12.7
    endloop
  endfacet
  facet normal 0.156434 0.987688 -0
    outer loop
      vertex 8.83123 -42.1895 12.7
      vertex 10.16 -42.4 0
      vertex 8.83123 -42.1895 0
    endloop
  endfacet
  facet normal 0.45399 0.891007 -0
    outer loop
      vertex 8.83123 -42.1895 12.7
      vertex 8.83123 -42.1895 0
      vertex 7.63252 -41.5788 12.7
    endloop
  endfacet
  facet normal 0.45399 0.891007 -0
    outer loop
      vertex 7.63252 -41.5788 12.7
      vertex 8.83123 -42.1895 0
      vertex 7.63252 -41.5788 0
    endloop
  endfacet
  facet normal 0.707107 0.707107 -0
    outer loop
      vertex 7.63252 -41.5788 12.7
      vertex 7.63252 -41.5788 0
      vertex 6.68123 -40.6275 12.7
    endloop
  endfacet
  facet normal 0.707107 0.707107 -0
    outer loop
      vertex 6.68123 -40.6275 12.7
      vertex 7.63252 -41.5788 0
      vertex 6.68123 -40.6275 0
    endloop
  endfacet
  facet normal 0.891007 0.45399 0
    outer loop
      vertex 6.07046 -39.4288 12.7
      vertex 6.68123 -40.6275 12.7
      vertex 6.68123 -40.6275 0
    endloop
  endfacet
  facet normal 0.891007 0.45399 0
    outer loop
      vertex 6.07046 -39.4288 0
      vertex 6.07046 -39.4288 12.7
      vertex 6.68123 -40.6275 0
    endloop
  endfacet
  facet normal 0.987688 -0.156434 0
    outer loop
      vertex 6.07046 39.4288 0
      vertex 6.07046 39.4288 12.7
      vertex 5.86 38.1 12.7
    endloop
  endfacet
  facet normal 0.987688 -0.156434 0
    outer loop
      vertex 5.86 38.1 0
      vertex 6.07046 39.4288 0
      vertex 5.86 38.1 12.7
    endloop
  endfacet
  facet normal 0.987688 0.156434 0
    outer loop
      vertex 5.86 38.1 12.7
      vertex 6.07046 36.7712 12.7
      vertex 6.07046 36.7712 0
    endloop
  endfacet
  facet normal 0.987688 0.156434 0
    outer loop
      vertex 5.86 38.1 0
      vertex 5.86 38.1 12.7
      vertex 6.07046 36.7712 0
    endloop
  endfacet
  facet normal 0.891007 -0.45399 0
    outer loop
      vertex 6.68123 40.6275 0
      vertex 6.68123 40.6275 12.7
      vertex 6.07046 39.4288 12.7
    endloop
  endfacet
  facet normal 0.891007 -0.45399 0
    outer loop
      vertex 6.07046 39.4288 0
      vertex 6.68123 40.6275 0
      vertex 6.07046 39.4288 12.7
    endloop
  endfacet
  facet normal 0.707107 -0.707107 0
    outer loop
      vertex 7.63252 41.5788 0
      vertex 7.63252 41.5788 12.7
      vertex 6.68123 40.6275 12.7
    endloop
  endfacet
  facet normal 0.707107 -0.707107 0
    outer loop
      vertex 6.68123 40.6275 0
      vertex 7.63252 41.5788 0
      vertex 6.68123 40.6275 12.7
    endloop
  endfacet
  facet normal 0.45399 -0.891007 0
    outer loop
      vertex 8.83123 42.1895 0
      vertex 8.83123 42.1895 12.7
      vertex 7.63252 41.5788 12.7
    endloop
  endfacet
  facet normal 0.45399 -0.891007 0
    outer loop
      vertex 7.63252 41.5788 0
      vertex 8.83123 42.1895 0
      vertex 7.63252 41.5788 12.7
    endloop
  endfacet
  facet normal 0.156434 -0.987688 0
    outer loop
      vertex 10.16 42.4 0
      vertex 10.16 42.4 12.7
      vertex 8.83123 42.1895 12.7
    endloop
  endfacet
  facet normal 0.156434 -0.987688 0
    outer loop
      vertex 8.83123 42.1895 0
      vertex 10.16 42.4 0
      vertex 8.83123 42.1895 12.7
    endloop
  endfacet
  facet normal -0.156434 -0.987688 -0
    outer loop
      vertex 11.4888 42.1895 0
      vertex 11.4888 42.1895 12.7
      vertex 10.16 42.4 12.7
    endloop
  endfacet
  facet normal -0.156434 -0.987688 -0
    outer loop
      vertex 10.16 42.4 0
      vertex 11.4888 42.1895 0
      vertex 10.16 42.4 12.7
    endloop
  endfacet
  facet normal -0.45399 -0.891007 -0
    outer loop
      vertex 12.6875 41.5788 0
      vertex 12.6875 41.5788 12.7
      vertex 11.4888 42.1895 12.7
    endloop
  endfacet
  facet normal -0.45399 -0.891007 -0
    outer loop
      vertex 11.4888 42.1895 0
      vertex 12.6875 41.5788 0
      vertex 11.4888 42.1895 12.7
    endloop
  endfacet
  facet normal -0.707107 -0.707107 -0
    outer loop
      vertex 13.6388 40.6275 0
      vertex 13.6388 40.6275 12.7
      vertex 12.6875 41.5788 12.7
    endloop
  endfacet
  facet normal -0.707107 -0.707107 -0
    outer loop
      vertex 12.6875 41.5788 0
      vertex 13.6388 40.6275 0
      vertex 12.6875 41.5788 12.7
    endloop
  endfacet
  facet normal -0.891007 -0.45399 0
    outer loop
      vertex 14.2495 39.4288 12.7
      vertex 13.6388 40.6275 12.7
      vertex 14.2495 39.4288 0
    endloop
  endfacet
  facet normal -0.891007 -0.45399 0
    outer loop
      vertex 14.2495 39.4288 0
      vertex 13.6388 40.6275 12.7
      vertex 13.6388 40.6275 0
    endloop
  endfacet
  facet normal -0.987688 -0.156434 0
    outer loop
      vertex 14.46 38.1 12.7
      vertex 14.2495 39.4288 12.7
      vertex 14.46 38.1 0
    endloop
  endfacet
  facet normal -0.987688 -0.156434 0
    outer loop
      vertex 14.46 38.1 0
      vertex 14.2495 39.4288 12.7
      vertex 14.2495 39.4288 0
    endloop
  endfacet
  facet normal -0.987688 0.156434 0
    outer loop
      vertex 14.46 38.1 12.7
      vertex 14.46 38.1 0
      vertex 14.2495 36.7712 12.7
    endloop
  endfacet
  facet normal -0.987688 0.156434 0
    outer loop
      vertex 14.2495 36.7712 12.7
      vertex 14.46 38.1 0
      vertex 14.2495 36.7712 0
    endloop
  endfacet
  facet normal -0.891007 0.45399 0
    outer loop
      vertex 14.2495 36.7712 12.7
      vertex 14.2495 36.7712 0
      vertex 13.6388 35.5725 12.7
    endloop
  endfacet
  facet normal -0.891007 0.45399 0
    outer loop
      vertex 13.6388 35.5725 12.7
      vertex 14.2495 36.7712 0
      vertex 13.6388 35.5725 0
    endloop
  endfacet
  facet normal -0.707107 0.707107 0
    outer loop
      vertex 13.6388 35.5725 12.7
      vertex 13.6388 35.5725 0
      vertex 12.6875 34.6212 12.7
    endloop
  endfacet
  facet normal -0.707107 0.707107 0
    outer loop
      vertex 12.6875 34.6212 12.7
      vertex 13.6388 35.5725 0
      vertex 12.6875 34.6212 0
    endloop
  endfacet
  facet normal -0.45399 0.891007 0
    outer loop
      vertex 12.6875 34.6212 12.7
      vertex 12.6875 34.6212 0
      vertex 11.4888 34.0105 12.7
    endloop
  endfacet
  facet normal -0.45399 0.891007 0
    outer loop
      vertex 11.4888 34.0105 12.7
      vertex 12.6875 34.6212 0
      vertex 11.4888 34.0105 0
    endloop
  endfacet
  facet normal -0.156434 0.987688 0
    outer loop
      vertex 11.4888 34.0105 12.7
      vertex 11.4888 34.0105 0
      vertex 10.16 33.8 12.7
    endloop
  endfacet
  facet normal -0.156434 0.987688 0
    outer loop
      vertex 10.16 33.8 12.7
      vertex 11.4888 34.0105 0
      vertex 10.16 33.8 0
    endloop
  endfacet
  facet normal 0.156434 0.987688 -0
    outer loop
      vertex 10.16 33.8 12.7
      vertex 10.16 33.8 0
      vertex 8.83123 34.0105 12.7
    endloop
  endfacet
  facet normal 0.156434 0.987688 -0
    outer loop
      vertex 8.83123 34.0105 12.7
      vertex 10.16 33.8 0
      vertex 8.83123 34.0105 0
    endloop
  endfacet
  facet normal 0.45399 0.891007 -0
    outer loop
      vertex 8.83123 34.0105 12.7
      vertex 8.83123 34.0105 0
      vertex 7.63252 34.6212 12.7
    endloop
  endfacet
  facet normal 0.45399 0.891007 -0
    outer loop
      vertex 7.63252 34.6212 12.7
      vertex 8.83123 34.0105 0
      vertex 7.63252 34.6212 0
    endloop
  endfacet
  facet normal 0.707107 0.707107 -0
    outer loop
      vertex 7.63252 34.6212 12.7
      vertex 7.63252 34.6212 0
      vertex 6.68123 35.5725 12.7
    endloop
  endfacet
  facet normal 0.707107 0.707107 -0
    outer loop
      vertex 6.68123 35.5725 12.7
      vertex 7.63252 34.6212 0
      vertex 6.68123 35.5725 0
    endloop
  endfacet
  facet normal 0.891007 0.45399 0
    outer loop
      vertex 6.07046 36.7712 12.7
      vertex 6.68123 35.5725 12.7
      vertex 6.68123 35.5725 0
    endloop
  endfacet
  facet normal 0.891007 0.45399 0
    outer loop
      vertex 6.07046 36.7712 0
      vertex 6.07046 36.7712 12.7
      vertex 6.68123 35.5725 0
    endloop
  endfacet
  facet normal -1 0 0
    outer loop
      vertex -5.4 50.8 12.7
      vertex -5.4 50.8 5.85
      vertex -5.4 -50.8 12.7
    endloop
  endfacet
  facet normal -1 0 0
    outer loop
      vertex -5.4 -50.8 12.7
      vertex -5.4 50.8 5.85
      vertex -5.4 -50.8 5.85
    endloop
  endfacet
  facet normal 0 -0 1
    outer loop
      vertex 8.83123 -42.1895 12.7
      vertex -5.4 -50.8 12.7
      vertex 20.4 -50.8 12.7
    endloop
  endfacet
  facet normal -0 0 1
    outer loop
      vertex 23.9355 -49.3355 12.7
      vertex -5.4 50.8 12.7
      vertex 22.3134 -50.4194 12.7
    endloop
  endfacet
  facet normal -0 0 1
    outer loop
      vertex 22.3134 -50.4194 12.7
      vertex -5.4 50.8 12.7
      vertex 20.4 -50.8 12.7
    endloop
  endfacet
  facet normal -0 0 1
    outer loop
      vertex 25.0194 -47.7134 12.7
      vertex -5.4 50.8 12.7
      vertex 23.9355 -49.3355 12.7
    endloop
  endfacet
  facet normal -0 0 1
    outer loop
      vertex 25.4 -45.8 12.7
      vertex -5.4 50.8 12.7
      vertex 25.0194 -47.7134 12.7
    endloop
  endfacet
  facet normal -0 -0 1
    outer loop
      vertex 6.07046 36.7712 12.7
      vertex -5.4 50.8 12.7
      vertex 25.4 -45.8 12.7
    endloop
  endfacet
  facet normal -0 -0 1
    outer loop
      vertex 25.0194 47.7134 12.7
      vertex -5.4 50.8 12.7
      vertex 25.4 45.8 12.7
    endloop
  endfacet
  facet normal -0 -0 1
    outer loop
      vertex 23.9355 49.3355 12.7
      vertex -5.4 50.8 12.7
      vertex 25.0194 47.7134 12.7
    endloop
  endfacet
  facet normal -0 -0 1
    outer loop
      vertex 22.3134 50.4194 12.7
      vertex -5.4 50.8 12.7
      vertex 23.9355 49.3355 12.7
    endloop
  endfacet
  facet normal 0 -0 1
    outer loop
      vertex 20.4 50.8 12.7
      vertex -5.4 50.8 12.7
      vertex 22.3134 50.4194 12.7
    endloop
  endfacet
  facet normal 0 0 1
    outer loop
      vertex 10.16 42.4 12.7
      vertex 11.4888 42.1895 12.7
      vertex 25.4 45.8 12.7
    endloop
  endfacet
  facet normal 0 -0 1
    outer loop
      vertex 5.86 -38.1 12.7
      vertex -5.4 -50.8 12.7
      vertex 6.07046 -39.4288 12.7
    endloop
  endfacet
  facet normal 0 0 1
    outer loop
      vertex 14.2495 -36.7712 12.7
      vertex 14.46 -38.1 12.7
      vertex 20.4 -50.8 12.7
    endloop
  endfacet
  facet normal 0 -0 1
    outer loop
      vertex -5.4 50.8 12.7
      vertex -5.4 -50.8 12.7
      vertex 5.86 -38.1 12.7
    endloop
  endfacet
  facet normal -0 -0 1
    outer loop
      vertex 10.16 -42.4 12.7
      vertex 8.83123 -42.1895 12.7
      vertex 20.4 -50.8 12.7
    endloop
  endfacet
  facet normal 0 0 1
    outer loop
      vertex 11.4888 42.1895 12.7
      vertex 12.6875 41.5788 12.7
      vertex 25.4 45.8 12.7
    endloop
  endfacet
  facet normal 0 0 1
    outer loop
      vertex -5.4 50.8 12.7
      vertex 6.07046 -36.7712 12.7
      vertex 6.68123 -35.5725 12.7
    endloop
  endfacet
  facet normal 0 0 1
    outer loop
      vertex -5.4 50.8 12.7
      vertex 6.68123 -35.5725 12.7
      vertex 7.63252 -34.6212 12.7
    endloop
  endfacet
  facet normal 0 -0 1
    outer loop
      vertex 12.6875 -41.5788 12.7
      vertex 11.4888 -42.1895 12.7
      vertex 20.4 -50.8 12.7
    endloop
  endfacet
  facet normal 0 0 1
    outer loop
      vertex -5.4 50.8 12.7
      vertex 7.63252 -34.6212 12.7
      vertex 8.83123 -34.0105 12.7
    endloop
  endfacet
  facet normal 0 0 1
    outer loop
      vertex -5.4 50.8 12.7
      vertex 8.83123 -34.0105 12.7
      vertex 10.16 -33.8 12.7
    endloop
  endfacet
  facet normal 0 -0 1
    outer loop
      vertex 14.2495 -39.4288 12.7
      vertex 13.6388 -40.6275 12.7
      vertex 20.4 -50.8 12.7
    endloop
  endfacet
  facet normal 0 0 1
    outer loop
      vertex -5.4 50.8 12.7
      vertex 10.16 -33.8 12.7
      vertex 11.4888 -34.0105 12.7
    endloop
  endfacet
  facet normal 0 -0 1
    outer loop
      vertex 13.6388 -40.6275 12.7
      vertex 12.6875 -41.5788 12.7
      vertex 20.4 -50.8 12.7
    endloop
  endfacet
  facet normal 0 0 1
    outer loop
      vertex -5.4 50.8 12.7
      vertex 11.4888 -34.0105 12.7
      vertex 12.6875 -34.6212 12.7
    endloop
  endfacet
  facet normal 0 0 1
    outer loop
      vertex -5.4 50.8 12.7
      vertex 12.6875 -34.6212 12.7
      vertex 13.6388 -35.5725 12.7
    endloop
  endfacet
  facet normal 0 0 1
    outer loop
      vertex -5.4 50.8 12.7
      vertex 14.2495 -36.7712 12.7
      vertex 20.4 -50.8 12.7
    endloop
  endfacet
  facet normal 0 0 1
    outer loop
      vertex -5.4 50.8 12.7
      vertex 13.6388 -35.5725 12.7
      vertex 14.2495 -36.7712 12.7
    endloop
  endfacet
  facet normal 0 -0 1
    outer loop
      vertex 11.4888 -42.1895 12.7
      vertex 10.16 -42.4 12.7
      vertex 20.4 -50.8 12.7
    endloop
  endfacet
  facet normal 0 -0 1
    outer loop
      vertex 7.63252 -41.5788 12.7
      vertex -5.4 -50.8 12.7
      vertex 8.83123 -42.1895 12.7
    endloop
  endfacet
  facet normal 0 -0 1
    outer loop
      vertex 6.68123 -40.6275 12.7
      vertex -5.4 -50.8 12.7
      vertex 7.63252 -41.5788 12.7
    endloop
  endfacet
  facet normal 0 -0 1
    outer loop
      vertex 6.07046 -39.4288 12.7
      vertex -5.4 -50.8 12.7
      vertex 6.68123 -40.6275 12.7
    endloop
  endfacet
  facet normal -0 -0 1
    outer loop
      vertex 6.68123 35.5725 12.7
      vertex 6.07046 36.7712 12.7
      vertex 25.4 -45.8 12.7
    endloop
  endfacet
  facet normal -0 -0 1
    outer loop
      vertex 5.86 38.1 12.7
      vertex -5.4 50.8 12.7
      vertex 6.07046 36.7712 12.7
    endloop
  endfacet
  facet normal -0 0 1
    outer loop
      vertex 6.07046 39.4288 12.7
      vertex -5.4 50.8 12.7
      vertex 5.86 38.1 12.7
    endloop
  endfacet
  facet normal -0 0 1
    outer loop
      vertex 6.68123 40.6275 12.7
      vertex -5.4 50.8 12.7
      vertex 6.07046 39.4288 12.7
    endloop
  endfacet
  facet normal 0 0 1
    outer loop
      vertex 12.6875 41.5788 12.7
      vertex 13.6388 40.6275 12.7
      vertex 25.4 45.8 12.7
    endloop
  endfacet
  facet normal -0 0 1
    outer loop
      vertex 7.63252 41.5788 12.7
      vertex -5.4 50.8 12.7
      vertex 6.68123 40.6275 12.7
    endloop
  endfacet
  facet normal -0 0 1
    outer loop
      vertex 8.83123 42.1895 12.7
      vertex -5.4 50.8 12.7
      vertex 7.63252 41.5788 12.7
    endloop
  endfacet
  facet normal -0 0 1
    outer loop
      vertex 25.4 45.8 12.7
      vertex -5.4 50.8 12.7
      vertex 8.83123 42.1895 12.7
    endloop
  endfacet
  facet normal 0 0 1
    outer loop
      vertex 25.4 45.8 12.7
      vertex 8.83123 42.1895 12.7
      vertex 10.16 42.4 12.7
    endloop
  endfacet
  facet normal 0 0 1
    outer loop
      vertex 13.6388 40.6275 12.7
      vertex 14.2495 39.4288 12.7
      vertex 25.4 45.8 12.7
    endloop
  endfacet
  facet normal 0 -0 1
    outer loop
      vertex 14.46 38.1 12.7
      vertex 14.2495 36.7712 12.7
      vertex 25.4 -45.8 12.7
    endloop
  endfacet
  facet normal 0 0 1
    outer loop
      vertex 25.4 45.8 12.7
      vertex 14.46 38.1 12.7
      vertex 25.4 -45.8 12.7
    endloop
  endfacet
  facet normal 0 0 1
    outer loop
      vertex 25.4 45.8 12.7
      vertex 14.2495 39.4288 12.7
      vertex 14.46 38.1 12.7
    endloop
  endfacet
  facet normal 0 -0 1
    outer loop
      vertex 14.2495 36.7712 12.7
      vertex 13.6388 35.5725 12.7
      vertex 25.4 -45.8 12.7
    endloop
  endfacet
  facet normal 0 -0 1
    outer loop
      vertex 13.6388 35.5725 12.7
      vertex 12.6875 34.6212 12.7
      vertex 25.4 -45.8 12.7
    endloop
  endfacet
  facet normal 0 -0 1
    outer loop
      vertex 12.6875 34.6212 12.7
      vertex 11.4888 34.0105 12.7
      vertex 25.4 -45.8 12.7
    endloop
  endfacet
  facet normal 0 -0 1
    outer loop
      vertex 11.4888 34.0105 12.7
      vertex 10.16 33.8 12.7
      vertex 25.4 -45.8 12.7
    endloop
  endfacet
  facet normal -0 -0 1
    outer loop
      vertex 10.16 33.8 12.7
      vertex 8.83123 34.0105 12.7
      vertex 25.4 -45.8 12.7
    endloop
  endfacet
  facet normal -0 -0 1
    outer loop
      vertex 8.83123 34.0105 12.7
      vertex 7.63252 34.6212 12.7
      vertex 25.4 -45.8 12.7
    endloop
  endfacet
  facet normal -0 -0 1
    outer loop
      vertex 7.63252 34.6212 12.7
      vertex 6.68123 35.5725 12.7
      vertex 25.4 -45.8 12.7
    endloop
  endfacet
  facet normal 0 0 1
    outer loop
      vertex 5.86 -38.1 12.7
      vertex 6.07046 -36.7712 12.7
      vertex -5.4 50.8 12.7
    endloop
  endfacet
  facet normal 0 -0 1
    outer loop
      vertex 14.46 -38.1 12.7
      vertex 14.2495 -39.4288 12.7
      vertex 20.4 -50.8 12.7
    endloop
  endfacet
endsolid OpenSCAD_Model
